<svg width="705" height="705" viewBox="0 0 705 705" fill="none" xmlns="http://www.w3.org/2000/svg">
<path d="M327.751 10.7487C341.42 -2.91962 363.58 -2.91961 377.249 10.7487L694.251 327.751C707.92 341.42 707.92 363.58 694.251 377.249L377.249 694.251C363.58 707.92 341.42 707.92 327.751 694.251L10.7487 377.249C-2.91962 363.58 -2.91961 341.42 10.7487 327.751L327.751 10.7487Z" fill="#226321"/>
<g filter="url(#filter0_d_0_1)">
<path d="M165.574 280.355C165.574 281.007 165.477 281.592 165.281 282.113C165.151 282.569 164.988 283.057 164.793 283.578C163.686 286.182 162.514 288.754 161.277 291.293C160.04 293.767 159.064 296.404 158.348 299.203C155.939 308.969 154.116 318.832 152.879 328.793C151.707 338.754 150.926 348.78 150.535 358.871C154.767 359.783 158.543 361.28 161.863 363.363C165.249 365.447 168.536 367.921 171.727 370.785C177.911 368.181 183.51 364.926 188.523 361.02C193.602 357.113 197.931 352.621 201.512 347.543C205.092 342.465 207.859 336.833 209.812 330.648C211.766 324.464 212.742 317.855 212.742 310.824C212.742 306.918 212.156 302.947 210.984 298.91C209.878 294.809 208.283 290.837 206.199 286.996C204.181 283.155 201.74 279.542 198.875 276.156C196.076 272.771 192.951 269.841 189.5 267.367C186.049 264.828 182.339 262.842 178.367 261.41C174.461 259.913 170.392 259.164 166.16 259.164C162.124 259.164 157.924 259.913 153.562 261.41C149.266 262.908 145.327 265.023 141.746 267.758C138.165 270.427 135.236 273.65 132.957 277.426C130.678 281.202 129.539 285.336 129.539 289.828C129.539 291.586 129.734 293.181 130.125 294.613C130.581 295.98 131.036 297.25 131.492 298.422C132.013 299.594 132.469 300.701 132.859 301.742C133.315 302.719 133.543 303.728 133.543 304.77C133.543 306.658 132.892 308.253 131.59 309.555C130.353 310.792 128.823 311.41 127 311.41C125.307 311.41 123.973 310.954 122.996 310.043C122.02 309.132 121.238 307.992 120.652 306.625C120.132 305.258 119.773 303.826 119.578 302.328C119.448 300.766 119.383 299.398 119.383 298.227C119.383 292.497 120.75 287.322 123.484 282.699C126.219 278.077 129.734 273.91 134.031 270.199C136.766 267.855 139.5 265.805 142.234 264.047C145.034 262.289 147.898 260.792 150.828 259.555C153.823 258.318 156.915 257.406 160.105 256.82C163.296 256.169 166.714 255.844 170.359 255.844C175.568 255.844 180.581 256.495 185.398 257.797C190.281 259.099 194.839 260.954 199.07 263.363C203.367 265.772 207.273 268.669 210.789 272.055C214.37 275.44 217.43 279.216 219.969 283.383C222.508 287.549 224.461 292.074 225.828 296.957C227.26 301.775 227.977 306.853 227.977 312.191C227.977 320.069 226.544 327.328 223.68 333.969C220.88 340.609 217.072 346.566 212.254 351.84C207.436 357.048 201.837 361.573 195.457 365.414C189.077 369.19 182.371 372.152 175.34 374.301C176.056 375.017 176.74 375.701 177.391 376.352C178.107 377.003 178.823 377.686 179.539 378.402C183.445 382.243 187.319 386.312 191.16 390.609C195.066 394.906 199.07 399.171 203.172 403.402C207.273 407.634 211.505 411.671 215.867 415.512C220.229 419.418 224.852 422.836 229.734 425.766C234.617 428.76 239.793 431.137 245.262 432.895C250.796 434.652 256.72 435.531 263.035 435.531C264.142 435.531 265.184 435.466 266.16 435.336C267.202 435.271 268.276 435.076 269.383 434.75L269.871 436.703C267.007 438.201 263.979 439.275 260.789 439.926C257.599 440.577 254.344 440.902 251.023 440.902C244.122 440.902 237.84 440.186 232.176 438.754C226.512 437.387 221.271 435.434 216.453 432.895C211.635 430.355 207.176 427.296 203.074 423.715C198.973 420.199 195.034 416.326 191.258 412.094C187.482 407.862 183.771 403.337 180.125 398.52C176.544 393.767 172.833 388.852 168.992 383.773C168.146 382.667 167.299 381.56 166.453 380.453C165.672 379.281 164.891 378.142 164.109 377.035C161.766 377.426 159.422 377.751 157.078 378.012C154.799 378.207 152.521 378.337 150.242 378.402C150.242 386.345 150.438 394.19 150.828 401.938C151.219 409.685 151.674 417.302 152.195 424.789L150.34 425.375C147.671 418.474 145.62 410.922 144.188 402.719C142.82 394.516 141.779 386.247 141.062 377.914C139.37 377.654 137.71 377.296 136.082 376.84C134.454 376.384 132.957 375.766 131.59 374.984C130.288 374.138 129.214 373.129 128.367 371.957C127.586 370.72 127.195 369.255 127.195 367.562C127.195 366 127.586 364.665 128.367 363.559C129.148 362.387 130.158 361.443 131.395 360.727C132.697 359.945 134.096 359.359 135.594 358.969C137.091 358.513 138.589 358.22 140.086 358.09C140.021 356.267 139.988 354.477 139.988 352.719C139.988 350.896 139.988 349.138 139.988 347.445C139.988 344.776 139.988 341.456 139.988 337.484C140.053 333.513 140.216 329.281 140.477 324.789C140.802 320.297 141.29 315.74 141.941 311.117C142.592 306.43 143.471 302.035 144.578 297.934C145.75 293.832 147.215 290.186 148.973 286.996C150.796 283.806 153.009 281.462 155.613 279.965C156.59 279.379 157.664 278.858 158.836 278.402C160.008 277.882 161.245 277.621 162.547 277.621C164.565 277.621 165.574 278.533 165.574 280.355ZM130.613 367.953C130.613 368.865 130.906 369.678 131.492 370.395C132.078 371.111 132.859 371.762 133.836 372.348C134.812 372.868 135.887 373.324 137.059 373.715C138.296 374.105 139.565 374.431 140.867 374.691C140.737 372.478 140.607 370.297 140.477 368.148C140.411 365.935 140.314 363.754 140.184 361.605C139.077 361.605 137.938 361.671 136.766 361.801C135.659 361.931 134.65 362.224 133.738 362.68C132.827 363.135 132.078 363.786 131.492 364.633C130.906 365.414 130.613 366.521 130.613 367.953ZM150.242 375.57C152.26 375.57 154.246 375.44 156.199 375.18C158.152 374.919 160.073 374.561 161.961 374.105C160.333 371.892 158.576 369.874 156.688 368.051C154.865 366.163 152.749 364.665 150.34 363.559C150.275 365.577 150.242 367.595 150.242 369.613C150.242 371.566 150.242 373.552 150.242 375.57ZM276.023 339.828C276.023 340.544 275.763 341.195 275.242 341.781C274.721 342.302 274.103 342.562 273.387 342.562C272.801 342.562 272.182 342.4 271.531 342.074C270.88 341.684 270.132 341.26 269.285 340.805C268.504 340.349 267.56 339.958 266.453 339.633C265.411 339.242 264.207 339.047 262.84 339.047C259.65 339.047 256.785 340.056 254.246 342.074C251.772 344.027 249.656 346.469 247.898 349.398C246.206 352.328 244.904 355.453 243.992 358.773C243.081 362.094 242.625 365.089 242.625 367.758C242.625 369.646 242.788 371.501 243.113 373.324C243.439 375.082 243.992 376.71 244.773 378.207C245.62 379.639 246.759 380.811 248.191 381.723C249.624 382.569 251.447 382.992 253.66 382.992C256.004 382.992 258.25 382.569 260.398 381.723C262.547 380.811 264.565 379.639 266.453 378.207C266.518 376.124 266.844 373.943 267.43 371.664C268.081 369.32 268.895 367.042 269.871 364.828C270.848 362.549 271.954 360.401 273.191 358.383C274.493 356.365 275.828 354.574 277.195 353.012L278.465 353.793C277.749 356.007 277.228 358.285 276.902 360.629C276.577 362.973 276.414 365.284 276.414 367.562C276.414 369.906 276.609 372.12 277 374.203C277.391 376.286 278.074 378.109 279.051 379.672C280.027 381.169 281.362 382.374 283.055 383.285C284.747 384.132 286.928 384.555 289.598 384.555C292.853 384.555 295.848 383.806 298.582 382.309C301.316 380.811 303.725 378.923 305.809 376.645L306.59 377.035C305.418 379.314 303.888 381.495 302 383.578C300.112 385.661 297.996 387.549 295.652 389.242C293.374 390.87 290.932 392.172 288.328 393.148C285.724 394.125 283.152 394.613 280.613 394.613C277.033 394.613 274.103 393.572 271.824 391.488C269.546 389.47 267.983 386.898 267.137 383.773C264.402 386.508 261.342 388.819 257.957 390.707C254.637 392.53 251.121 393.441 247.41 393.441C244.676 393.441 242.234 392.921 240.086 391.879C238.003 390.902 236.245 389.568 234.812 387.875C233.38 386.182 232.273 384.197 231.492 381.918C230.776 379.574 230.418 377.133 230.418 374.594C230.418 371.664 230.874 368.669 231.785 365.609C232.762 362.484 234.064 359.424 235.691 356.43C237.384 353.435 239.37 350.603 241.648 347.934C243.927 345.264 246.401 342.921 249.07 340.902C251.805 338.884 254.669 337.289 257.664 336.117C260.659 334.945 263.719 334.359 266.844 334.359C267.56 334.359 268.439 334.457 269.48 334.652C270.522 334.783 271.531 335.043 272.508 335.434C273.484 335.824 274.298 336.378 274.949 337.094C275.665 337.81 276.023 338.721 276.023 339.828ZM386.277 376.645C385.171 378.988 383.803 381.332 382.176 383.676C380.613 385.954 378.855 388.038 376.902 389.926C374.949 391.749 372.801 393.246 370.457 394.418C368.113 395.59 365.607 396.176 362.938 396.176C360.008 396.176 357.469 395.395 355.32 393.832C353.172 392.335 351.349 390.349 349.852 387.875C348.354 385.336 347.117 382.439 346.141 379.184C345.164 375.928 344.35 372.576 343.699 369.125C343.048 365.674 342.495 362.224 342.039 358.773C341.648 355.323 341.258 352.165 340.867 349.301C338.784 352.035 336.896 354.932 335.203 357.992C333.51 361.052 331.883 364.242 330.32 367.562C328.758 370.818 327.228 374.138 325.73 377.523C324.233 380.909 322.638 384.262 320.945 387.582C320.555 388.298 320.164 389.079 319.773 389.926C319.383 390.707 318.927 391.423 318.406 392.074C317.885 392.79 317.267 393.376 316.551 393.832C315.835 394.288 314.988 394.516 314.012 394.516C313.1 394.516 312.319 394.353 311.668 394.027C311.082 393.702 310.561 393.279 310.105 392.758C309.715 392.302 309.389 391.781 309.129 391.195C308.934 390.609 308.771 390.056 308.641 389.535C307.859 386.736 307.143 383.22 306.492 378.988C305.906 374.757 305.385 370.232 304.93 365.414C304.474 360.596 304.116 355.714 303.855 350.766C303.66 345.753 303.562 341.13 303.562 336.898C303.562 330.844 303.953 324.626 304.734 318.246C305.516 311.801 306.72 305.518 308.348 299.398C310.04 293.279 312.156 287.517 314.695 282.113C317.299 276.645 320.359 271.859 323.875 267.758C327.391 263.656 331.395 260.401 335.887 257.992C340.444 255.583 345.522 254.379 351.121 254.379C354.832 254.379 357.762 255.486 359.91 257.699C362.059 259.848 363.133 262.94 363.133 266.977C363.133 273.031 362.059 278.858 359.91 284.457C357.827 289.991 355.125 295.297 351.805 300.375C348.549 305.453 344.904 310.271 340.867 314.828C336.896 319.32 333.055 323.487 329.344 327.328L328.074 326.352C329.702 324.529 331.427 322.283 333.25 319.613C335.138 316.879 336.961 313.949 338.719 310.824C340.542 307.634 342.267 304.314 343.895 300.863C345.522 297.348 346.954 293.897 348.191 290.512C349.428 287.126 350.405 283.871 351.121 280.746C351.837 277.556 352.195 274.659 352.195 272.055C352.195 270.688 352.065 269.385 351.805 268.148C351.544 266.911 351.089 265.837 350.438 264.926C349.786 263.949 348.94 263.201 347.898 262.68C346.922 262.094 345.717 261.801 344.285 261.801C341.421 261.801 338.719 262.908 336.18 265.121C333.706 267.335 331.427 270.329 329.344 274.105C327.26 277.816 325.405 282.146 323.777 287.094C322.215 292.042 320.848 297.217 319.676 302.621C318.569 308.025 317.723 313.493 317.137 319.027C316.551 324.561 316.258 329.835 316.258 334.848C316.258 338.233 316.258 341.651 316.258 345.102C316.258 348.552 316.323 352.165 316.453 355.941C316.648 359.717 316.941 363.721 317.332 367.953C317.788 372.185 318.406 376.775 319.188 381.723C322.052 374.301 325.079 367.042 328.27 359.945C331.46 352.784 334.91 346.241 338.621 340.316C339.142 339.47 339.663 338.624 340.184 337.777C340.77 336.931 341.388 336.182 342.039 335.531C342.69 334.815 343.406 334.229 344.188 333.773C344.969 333.318 345.815 333.09 346.727 333.09C347.833 333.09 348.712 333.415 349.363 334.066C350.014 334.652 350.535 335.401 350.926 336.312C351.316 337.224 351.577 338.201 351.707 339.242C351.902 340.284 352.065 341.228 352.195 342.074C352.456 343.962 352.749 346.404 353.074 349.398C353.4 352.393 353.79 355.616 354.246 359.066C354.702 362.452 355.255 365.87 355.906 369.32C356.622 372.771 357.501 375.896 358.543 378.695C359.65 381.43 360.952 383.676 362.449 385.434C363.947 387.191 365.737 388.07 367.82 388.07C369.513 388.07 371.206 387.712 372.898 386.996C374.591 386.28 376.219 385.368 377.781 384.262C379.344 383.155 380.776 381.885 382.078 380.453C383.445 379.021 384.585 377.621 385.496 376.254L386.277 376.645ZM448.094 270.004C448.094 274.496 447.443 278.956 446.141 283.383C444.904 287.745 443.178 292.009 440.965 296.176C438.751 300.277 436.115 304.216 433.055 307.992C430.06 311.703 426.805 315.154 423.289 318.344C419.773 321.469 416.095 324.333 412.254 326.938C408.413 329.477 404.572 331.592 400.73 333.285L400.047 331.82C404.865 329.542 409.454 326.319 413.816 322.152C418.243 317.921 422.117 313.201 425.438 307.992C428.823 302.719 431.492 297.185 433.445 291.391C435.464 285.596 436.473 279.932 436.473 274.398C436.473 273.292 436.375 272.152 436.18 270.98C436.049 269.809 435.724 268.734 435.203 267.758C434.747 266.781 434.096 266 433.25 265.414C432.404 264.763 431.297 264.438 429.93 264.438C426.089 264.438 422.54 265.74 419.285 268.344C416.03 270.948 413.068 274.431 410.398 278.793C407.794 283.09 405.483 288.038 403.465 293.637C401.447 299.236 399.754 304.997 398.387 310.922C397.02 316.846 395.978 322.706 395.262 328.5C394.611 334.294 394.285 339.6 394.285 344.418C394.285 346.957 394.415 349.789 394.676 352.914C395.001 355.974 395.522 359.066 396.238 362.191C397.02 365.316 397.996 368.376 399.168 371.371C400.405 374.301 401.935 376.905 403.758 379.184C405.646 381.462 407.859 383.318 410.398 384.75C412.938 386.117 415.9 386.801 419.285 386.801C421.434 386.801 423.257 386.378 424.754 385.531C426.316 384.685 427.553 383.546 428.465 382.113C429.441 380.681 430.158 379.053 430.613 377.23C431.069 375.408 431.297 373.552 431.297 371.664C431.297 368.734 430.874 365.642 430.027 362.387C429.246 359.132 428.009 356.169 426.316 353.5C424.689 350.831 422.605 348.617 420.066 346.859C417.527 345.102 414.533 344.223 411.082 344.223C410.105 344.223 409.096 344.32 408.055 344.516C407.078 344.646 406.102 344.874 405.125 345.199L404.539 344.223C406.948 342.4 409.552 340.87 412.352 339.633C415.216 338.331 418.211 337.68 421.336 337.68C424.656 337.68 427.618 338.396 430.223 339.828C432.827 341.26 435.008 343.116 436.766 345.395C438.589 347.673 439.956 350.31 440.867 353.305C441.844 356.234 442.332 359.197 442.332 362.191C442.332 366.684 441.551 370.883 439.988 374.789C438.491 378.695 436.375 382.113 433.641 385.043C430.906 387.908 427.618 390.154 423.777 391.781C420.001 393.409 415.835 394.223 411.277 394.223C407.371 394.223 403.921 393.507 400.926 392.074C397.996 390.707 395.424 388.852 393.211 386.508C390.997 384.164 389.142 381.462 387.645 378.402C386.147 375.277 384.943 372.022 384.031 368.637C383.12 365.186 382.469 361.736 382.078 358.285C381.688 354.835 381.492 351.547 381.492 348.422C381.492 342.693 381.98 336.443 382.957 329.672C383.999 322.901 385.496 316.13 387.449 309.359C389.467 302.523 391.974 295.948 394.969 289.633C398.029 283.253 401.544 277.621 405.516 272.738C409.552 267.855 414.077 263.949 419.09 261.02C424.103 258.09 429.637 256.625 435.691 256.625C439.923 256.625 443.048 257.862 445.066 260.336C447.085 262.745 448.094 265.967 448.094 270.004ZM496.336 339.828C496.336 340.544 496.076 341.195 495.555 341.781C495.034 342.302 494.415 342.562 493.699 342.562C493.113 342.562 492.495 342.4 491.844 342.074C491.193 341.684 490.444 341.26 489.598 340.805C488.816 340.349 487.872 339.958 486.766 339.633C485.724 339.242 484.52 339.047 483.152 339.047C479.962 339.047 477.098 340.056 474.559 342.074C472.085 344.027 469.969 346.469 468.211 349.398C466.518 352.328 465.216 355.453 464.305 358.773C463.393 362.094 462.938 365.089 462.938 367.758C462.938 369.646 463.1 371.501 463.426 373.324C463.751 375.082 464.305 376.71 465.086 378.207C465.932 379.639 467.072 380.811 468.504 381.723C469.936 382.569 471.759 382.992 473.973 382.992C476.316 382.992 478.562 382.569 480.711 381.723C482.859 380.811 484.878 379.639 486.766 378.207C486.831 376.124 487.156 373.943 487.742 371.664C488.393 369.32 489.207 367.042 490.184 364.828C491.16 362.549 492.267 360.401 493.504 358.383C494.806 356.365 496.141 354.574 497.508 353.012L498.777 353.793C498.061 356.007 497.54 358.285 497.215 360.629C496.889 362.973 496.727 365.284 496.727 367.562C496.727 369.906 496.922 372.12 497.312 374.203C497.703 376.286 498.387 378.109 499.363 379.672C500.34 381.169 501.674 382.374 503.367 383.285C505.06 384.132 507.241 384.555 509.91 384.555C513.165 384.555 516.16 383.806 518.895 382.309C521.629 380.811 524.038 378.923 526.121 376.645L526.902 377.035C525.73 379.314 524.201 381.495 522.312 383.578C520.424 385.661 518.309 387.549 515.965 389.242C513.686 390.87 511.245 392.172 508.641 393.148C506.036 394.125 503.465 394.613 500.926 394.613C497.345 394.613 494.415 393.572 492.137 391.488C489.858 389.47 488.296 386.898 487.449 383.773C484.715 386.508 481.655 388.819 478.27 390.707C474.949 392.53 471.434 393.441 467.723 393.441C464.988 393.441 462.547 392.921 460.398 391.879C458.315 390.902 456.557 389.568 455.125 387.875C453.693 386.182 452.586 384.197 451.805 381.918C451.089 379.574 450.73 377.133 450.73 374.594C450.73 371.664 451.186 368.669 452.098 365.609C453.074 362.484 454.376 359.424 456.004 356.43C457.697 353.435 459.682 350.603 461.961 347.934C464.24 345.264 466.714 342.921 469.383 340.902C472.117 338.884 474.982 337.289 477.977 336.117C480.971 334.945 484.031 334.359 487.156 334.359C487.872 334.359 488.751 334.457 489.793 334.652C490.835 334.783 491.844 335.043 492.82 335.434C493.797 335.824 494.611 336.378 495.262 337.094C495.978 337.81 496.336 338.721 496.336 339.828ZM597.312 377.035C596.141 379.639 594.643 381.983 592.82 384.066C591.062 386.15 589.142 387.94 587.059 389.438C584.975 390.87 582.827 391.977 580.613 392.758C578.4 393.604 576.284 394.027 574.266 394.027C570.49 394.027 567.299 393.376 564.695 392.074C562.091 390.772 559.975 389.014 558.348 386.801C556.72 384.587 555.548 381.983 554.832 378.988C554.116 375.993 553.758 372.803 553.758 369.418C553.758 366.814 553.953 364.112 554.344 361.312C554.734 358.513 555.288 355.811 556.004 353.207C556.134 352.816 556.264 352.361 556.395 351.84C556.525 351.254 556.59 350.766 556.59 350.375C556.59 350.049 556.395 349.789 556.004 349.594C554.897 349.203 553.725 348.845 552.488 348.52C551.251 348.129 550.014 347.706 548.777 347.25C547.605 346.794 546.466 346.273 545.359 345.688C544.318 345.102 543.406 344.353 542.625 343.441C542.56 347.348 541.909 351.319 540.672 355.355C539.435 359.327 537.775 363.168 535.691 366.879C533.673 370.525 531.297 373.943 528.562 377.133C525.828 380.323 522.931 383.09 519.871 385.434L518.895 384.457C520.783 382.374 522.508 379.9 524.07 377.035C525.633 374.171 526.967 371.176 528.074 368.051C529.181 364.926 530.027 361.768 530.613 358.578C531.264 355.388 531.59 352.393 531.59 349.594C531.59 348.161 531.46 346.827 531.199 345.59C530.939 344.288 530.646 343.051 530.32 341.879C530.06 340.707 529.799 339.6 529.539 338.559C529.279 337.452 529.148 336.345 529.148 335.238C529.148 333.415 529.734 331.983 530.906 330.941C532.078 329.9 533.576 329.379 535.398 329.379C536.375 329.379 537.124 329.672 537.645 330.258C538.165 330.779 538.621 331.43 539.012 332.211C539.402 332.992 539.858 333.806 540.379 334.652C540.9 335.499 541.648 336.215 542.625 336.801C543.862 337.517 545.424 338.038 547.312 338.363C549.201 338.689 551.186 338.982 553.27 339.242C555.353 339.503 557.436 339.763 559.52 340.023C561.603 340.284 563.458 340.74 565.086 341.391C566.779 341.977 568.146 342.823 569.188 343.93C570.229 344.971 570.75 346.404 570.75 348.227C570.75 349.138 570.652 350.049 570.457 350.961C570.327 351.807 570.099 352.621 569.773 353.402C568.992 356.137 568.309 358.936 567.723 361.801C567.202 364.6 566.941 367.4 566.941 370.199C566.941 372.608 567.104 374.822 567.43 376.84C567.82 378.793 568.504 380.486 569.48 381.918C570.457 383.35 571.759 384.457 573.387 385.238C575.014 386.02 577.098 386.41 579.637 386.41C583.283 386.41 586.473 385.531 589.207 383.773C591.941 381.951 594.35 379.574 596.434 376.645L597.312 377.035Z" fill="#FAFF07"/>
</g>
<defs>
<filter id="filter0_d_0_1" x="118.383" y="253.379" width="489.93" height="198.523" filterUnits="userSpaceOnUse" color-interpolation-filters="sRGB">
<feFlood flood-opacity="0" result="BackgroundImageFix"/>
<feColorMatrix in="SourceAlpha" type="matrix" values="0 0 0 0 0 0 0 0 0 0 0 0 0 0 0 0 0 0 127 0" result="hardAlpha"/>
<feOffset dx="5" dy="5"/>
<feGaussianBlur stdDeviation="3"/>
<feComposite in2="hardAlpha" operator="out"/>
<feColorMatrix type="matrix" values="0 0 0 0 0 0 0 0 0 0 0 0 0 0 0 0 0 0 0.25 0"/>
<feBlend mode="normal" in2="BackgroundImageFix" result="effect1_dropShadow_0_1"/>
<feBlend mode="normal" in="SourceGraphic" in2="effect1_dropShadow_0_1" result="shape"/>
</filter>
</defs>
</svg>
